<svg version="1.1" id="Layer_1" xmlns="http://www.w3.org/2000/svg" xmlns:xlink="http://www.w3.org/1999/xlink" x="0px" y="0px"
	 width="100%" viewBox="0 0 612 433" enable-background="new 0 0 612 433" xml:space="preserve">
<path fill="#FFFFFF" opacity="1.000000" stroke="none" 
	d="
M613.000000,276.000000 
	C613.000000,328.643127 613.000000,381.286255 613.000000,433.964691 
	C409.114716,433.964691 205.229416,433.964691 1.000000,433.964691 
	C1.000000,365.978943 1.000000,297.957336 1.464220,229.397491 
	C17.632784,228.136856 33.337128,227.414413 49.359383,226.742065 
	C50.277691,226.606949 50.878090,226.421722 51.792641,226.301575 
	C52.733772,226.252457 53.360756,226.138260 54.294182,226.127991 
	C56.856537,225.879700 59.112446,225.527481 61.733322,225.222351 
	C63.065693,225.137375 64.033096,225.005310 65.441589,224.923340 
	C76.820618,223.341629 87.758560,221.709824 99.053764,220.248352 
	C99.925377,220.513916 100.439720,220.609192 101.310303,220.877350 
	C116.139488,223.017960 130.612442,224.985703 145.235168,227.120087 
	C145.921844,227.194092 146.458755,227.101410 147.403748,227.061096 
	C151.208237,227.300171 154.604675,227.486862 158.443039,227.808685 
	C176.919357,227.514542 194.967865,227.382248 212.981964,226.525879 
	C221.496384,226.121109 229.944885,224.329559 238.836121,223.193512 
	C243.133041,222.740860 247.017105,222.261047 251.322968,221.829407 
	C257.822998,220.830231 263.901245,219.782883 270.384857,218.795013 
	C275.830353,217.851593 280.870514,216.848663 286.335876,215.885056 
	C290.505096,215.197388 294.249054,214.470398 298.388275,213.799850 
	C308.538727,211.826004 318.293945,209.795700 328.376038,207.805267 
	C329.455475,207.531616 330.208038,207.218079 331.283234,206.909821 
	C332.403748,206.607697 333.201569,206.300323 334.426147,206.007385 
	C342.567657,204.343552 350.282410,202.665298 358.383209,201.002243 
	C360.171692,200.656570 361.574158,200.295670 363.312683,199.936676 
	C364.091125,199.870407 364.533478,199.802231 365.268738,199.781860 
	C366.032806,199.531891 366.503998,199.234100 367.313293,198.950439 
	C368.096832,198.901474 368.542206,198.838379 369.389923,198.809357 
	C378.164825,196.915833 386.512207,194.869690 394.915619,193.087509 
	C408.652405,190.174210 422.425690,187.432831 436.580475,184.681061 
	C438.323059,184.781082 439.668732,184.818939 441.191772,185.184631 
	C447.865326,187.377258 454.361511,189.242035 460.964172,191.453476 
	C472.475891,196.516663 483.911224,201.162018 495.276886,205.972061 
	C504.537140,209.891098 513.713928,214.007233 522.993530,218.349091 
	C523.708069,219.091644 524.356750,219.521072 525.362793,220.014709 
	C528.108765,221.085983 530.497253,222.093079 532.973877,223.432037 
	C542.356567,228.874710 551.651123,233.985519 561.007690,239.424683 
	C562.367371,240.522476 563.665100,241.291916 565.131104,242.295273 
	C565.833801,242.708038 566.368225,242.886871 566.979248,243.403595 
	C567.646362,244.290237 568.181152,244.918564 568.835632,245.375626 
	C577.325439,251.304779 585.826599,257.217712 594.336609,263.117828 
	C600.548828,267.424835 606.778259,271.706848 613.000000,276.000000 
z"/>
<path fill="#FFFFFF" opacity="1.000000" stroke="none" 
	d="
M1.000001,150.000000 
	C1.000000,100.360435 1.000000,50.720863 1.000000,1.042255 
	C205.000000,1.042255 409.000000,1.042255 613.000000,1.042255 
	C613.000000,14.410567 613.000000,27.736626 612.598267,41.537865 
	C605.268066,44.097839 598.297546,46.056049 591.434814,48.338451 
	C589.139465,49.101841 587.119446,50.693138 584.578918,51.926308 
	C581.568420,52.873905 578.934326,53.752911 576.340027,54.736977 
	C565.871643,58.707867 555.181519,62.197773 545.013977,66.832085 
	C532.231628,72.658173 519.847473,79.366554 507.370392,85.846237 
	C504.729706,87.217621 502.430115,89.245773 499.584717,90.997299 
	C497.166962,91.439163 495.137878,91.855026 492.645172,92.195801 
	C472.439148,93.929436 452.692566,95.694946 432.961731,97.622002 
	C431.225525,97.791573 429.592651,99.018692 427.525391,99.792252 
	C424.383209,99.906563 421.555939,99.618813 418.887665,100.141884 
	C414.436035,101.014557 410.125946,102.593636 405.684509,103.537476 
	C398.046173,105.160690 390.282867,106.236107 382.701080,108.074005 
	C374.398712,110.086578 366.242584,112.702591 357.688690,115.052917 
	C356.916351,115.122047 356.478088,115.193878 355.667480,115.213318 
	C353.472473,116.048523 351.649750,116.936111 349.443359,117.849442 
	C348.038849,117.971405 347.018005,118.067642 345.766876,118.210846 
	C345.250824,118.422531 345.053650,118.660622 344.599548,118.981018 
	C343.169495,119.329643 342.084961,119.669357 340.761688,120.091949 
	C340.300140,120.422729 340.077332,120.670631 339.499634,120.919861 
	C338.438538,120.985725 337.732269,121.050255 336.678467,121.092308 
	C335.480499,121.660828 334.630066,122.251823 333.381165,122.860168 
	C329.657654,123.954437 326.332611,125.031342 322.626648,126.088264 
	C319.824615,127.030563 317.403503,127.992851 314.618469,128.949768 
	C313.180481,129.319916 312.106445,129.695435 310.641418,130.072296 
	C301.502960,133.063660 292.755524,136.053680 283.838806,138.713943 
	C282.986420,137.967682 282.314697,137.213409 281.618439,137.189987 
	C277.385223,137.047607 273.144501,137.138870 268.910217,137.016144 
	C266.141327,136.935883 264.855988,138.172073 265.012146,140.881378 
	C265.209503,144.305664 263.291962,145.063553 260.317474,145.031158 
	C251.921432,144.939713 243.523743,144.999863 235.126709,144.999954 
	C222.318802,145.000107 209.507553,144.839432 196.705231,145.106613 
	C193.265106,145.178406 189.852142,146.551926 185.489182,147.540253 
	C182.960739,147.155304 179.174759,146.395905 175.351425,146.053070 
	C172.130219,145.764221 168.853409,146.131470 165.622971,145.901978 
	C160.129684,145.511765 158.225937,147.134552 157.612091,152.910049 
	C155.324020,153.296219 153.428467,153.672318 151.514496,153.869751 
	C146.034241,154.435135 140.546478,154.928040 134.665329,155.452209 
	C133.763901,155.605347 133.258804,155.755692 132.566422,155.776550 
	C131.962784,155.786957 131.546448,155.926865 130.774094,156.045044 
	C129.948120,156.085983 129.478180,156.148651 128.749161,156.161743 
	C128.328201,156.180801 128.166306,156.249435 127.619858,156.307556 
	C126.755966,156.468597 126.276627,156.640198 125.546799,156.681976 
	C124.578255,156.726273 123.860207,156.900375 122.760300,157.037079 
	C118.744522,157.633179 115.110138,158.263992 111.476784,158.900696 
	C99.718910,160.961166 87.961426,163.023834 75.776665,165.091553 
	C62.247860,168.495132 49.146179,171.892792 35.702206,175.208252 
	C35.125221,175.126877 34.890533,175.127731 34.469635,174.870697 
	C27.724947,169.900467 21.124943,165.244492 14.622074,160.456604 
	C10.013405,157.063400 5.535997,153.491913 1.000001,150.000000 
z"/>
<path fill="#FEFEFF" opacity="1.000000" stroke="none" 
	d="
M613.000000,190.000000 
	C613.000000,209.354233 613.000000,228.708450 612.618896,248.539490 
	C611.068359,248.569611 609.814758,248.269592 608.742493,247.653732 
	C596.811340,240.801498 584.908203,233.900452 572.760925,226.995590 
	C572.524292,226.978638 572.049744,226.974365 571.992859,226.658234 
	C571.286621,225.926041 570.637207,225.509979 569.672668,224.936707 
	C565.494019,222.910233 561.664001,220.967880 557.760254,219.186874 
	C549.518677,215.426773 541.238525,211.751099 532.608643,207.985016 
	C530.088806,207.073105 527.939697,206.203781 525.779541,205.363007 
	C512.397522,200.154480 499.073700,194.787750 485.605469,189.812164 
	C477.978180,186.994370 470.112427,184.821945 462.354095,182.358856 
	C464.599487,180.807297 466.774994,180.347717 468.970581,180.024796 
	C475.977600,178.994217 482.992065,178.014359 490.470032,177.023682 
	C507.287659,176.673767 523.638916,176.315094 540.425049,175.975967 
	C555.574768,177.993484 570.289734,179.991470 585.251709,182.268967 
	C586.767944,182.902313 588.034790,183.264984 589.306702,183.608521 
	C597.203857,185.741409 605.102112,187.869995 613.000000,190.000000 
z"/>
<path fill="#FEFEFF" opacity="1.000000" stroke="none" 
	d="
M613.000000,117.000000 
	C613.000000,132.020889 613.000000,147.041794 612.634888,162.495438 
	C609.331299,161.532700 606.430115,160.050995 603.446472,158.759750 
	C597.324707,156.110413 591.158813,153.563156 584.786316,150.706421 
	C576.031738,147.126724 567.662842,143.283829 558.931702,140.635315 
	C547.774841,137.250977 536.325623,134.830231 524.570312,131.987549 
	C519.838135,131.015274 515.578613,129.516800 511.230133,129.185242 
	C498.833710,128.239990 486.401062,127.769791 473.527344,127.086166 
	C469.636047,127.059654 466.200134,127.059654 462.764191,127.059654 
	C462.734497,126.629494 462.704803,126.199333 462.675079,125.769173 
	C472.705933,121.241699 482.718567,116.673386 492.772736,112.198280 
	C502.819763,107.726364 512.908264,103.347702 523.365601,98.942673 
	C525.497986,98.654861 527.243408,98.352524 529.270874,98.339798 
	C540.036743,100.081154 550.520569,101.532898 561.245117,103.266342 
	C563.990601,104.023643 566.495300,104.499252 569.248413,104.989258 
	C569.496765,105.003639 569.994202,105.016647 570.244995,105.288834 
	C578.961304,107.851967 587.424988,110.150101 595.893188,112.431335 
	C601.592163,113.966576 607.297485,115.477951 613.000000,117.000000 
z"/>
<path fill="#FEFEFF" opacity="1.000000" stroke="none" 
	d="
M613.000000,73.000000 
	C613.000000,82.354225 613.000000,91.708458 612.575073,101.536255 
	C604.709229,100.677498 597.291870,99.190704 589.821533,98.051468 
	C580.229797,96.588707 570.595337,95.405174 560.522339,94.073029 
	C555.040405,93.703468 550.015442,93.362221 544.993164,92.686615 
	C545.007568,91.906982 545.019226,91.461708 545.429565,91.010483 
	C557.551392,87.334557 569.274475,83.664581 581.405273,79.993698 
	C583.412842,79.648743 585.015808,79.318100 586.612183,78.958389 
	C595.408997,76.976173 604.204224,74.986870 613.000000,73.000000 
z"/>
<path fill="#FBFDFE" opacity="1.000000" stroke="none" 
	d="
M1.000000,216.000000 
	C1.000000,208.645752 1.000000,201.291504 1.316771,193.306732 
	C4.362985,191.483673 7.172209,190.443283 9.803563,189.063644 
	C13.972428,186.877899 17.315739,187.459351 21.661863,189.749466 
	C34.806252,196.675598 48.431892,202.688400 61.960960,209.295685 
	C62.089302,209.700287 62.126656,209.866333 61.783741,210.138245 
	C56.259552,211.012161 51.138966,212.050140 45.967293,212.497208 
	C30.989197,213.792068 15.990570,214.849442 1.000000,216.000000 
z"/>
<path fill="#D2ECFB" opacity="1.000000" stroke="none" 
	d="
M572.997559,227.012543 
	C584.908203,233.900452 596.811340,240.801498 608.742493,247.653732 
	C609.814758,248.269592 611.068359,248.569611 612.618896,249.008148 
	C613.000000,257.687561 613.000000,266.375122 613.000000,275.531342 
	C606.778259,271.706848 600.548828,267.424835 594.336609,263.117828 
	C585.826599,257.217712 577.325439,251.304779 568.835632,245.375626 
	C568.181152,244.918564 567.646362,244.290237 567.336914,243.333786 
	C568.830872,241.495026 570.043884,240.063980 571.494934,238.352173 
	C569.611450,237.275223 568.315735,236.534378 565.892639,235.148911 
	C571.322632,234.137115 573.987793,231.827347 572.997559,227.012543 
z"/>
<path fill="#D8EFFB" opacity="1.000000" stroke="none" 
	d="
M613.000000,72.531342 
	C604.204224,74.986870 595.408997,76.976173 586.612183,78.958389 
	C585.015808,79.318100 583.412842,79.648743 581.395996,79.616524 
	C581.148438,76.786934 575.889221,76.218742 578.780762,72.789474 
	C582.192078,68.743759 580.748718,64.007095 580.766724,59.416168 
	C580.773499,57.669464 581.996094,55.871078 582.874390,54.206978 
	C583.343445,53.318233 584.259338,52.665333 584.973572,51.905987 
	C587.119446,50.693138 589.139465,49.101841 591.434814,48.338451 
	C598.297546,46.056049 605.268066,44.097839 612.598267,42.006523 
	C613.000000,52.020893 613.000000,62.041790 613.000000,72.531342 
M583.797180,76.390076 
	C583.793030,76.785233 583.788879,77.180389 583.784729,77.575546 
	C583.948730,77.577049 584.255127,77.589531 584.255981,77.578476 
	C584.286255,77.185257 584.287964,76.789848 583.797180,76.390076 
z"/>
<path fill="#D8EFFB" opacity="1.000000" stroke="none" 
	d="
M585.011047,150.973877 
	C591.158813,153.563156 597.324707,156.110413 603.446472,158.759750 
	C606.430115,160.050995 609.331299,161.532700 612.634888,162.964096 
	C613.000000,171.687561 613.000000,180.375137 613.000000,189.531342 
	C605.102112,187.869995 597.203857,185.741409 589.306702,183.608521 
	C588.034790,183.264984 586.767944,182.902313 585.457153,181.992966 
	C586.803711,180.693985 588.191895,179.950516 588.646545,179.707031 
	C587.034180,177.258896 585.629456,175.009567 584.097717,172.850327 
	C583.349426,171.795410 582.544067,170.517654 581.453918,170.016739 
	C577.861450,168.366104 574.473450,157.882980 576.895447,154.603973 
	C577.595764,153.655853 579.401184,153.546951 580.673279,152.992157 
	C582.134705,152.354813 583.566406,151.649597 585.011047,150.973877 
z"/>
<path fill="#0D74BA" opacity="1.000000" stroke="none" 
	d="
M1.000000,216.463181 
	C15.990570,214.849442 30.989197,213.792068 45.967293,212.497208 
	C51.138966,212.050140 56.259552,211.012161 61.987534,210.150574 
	C62.571590,210.057053 62.973869,209.983414 62.984962,209.990982 
	C62.996052,209.998550 63.015469,210.017120 62.969635,210.321655 
	C59.284195,217.809372 59.284195,217.809372 65.000504,217.751236 
	C65.000504,220.115662 65.000504,222.494461 65.000504,224.873245 
	C64.033096,225.005310 63.065693,225.137375 61.288048,225.147034 
	C58.314449,225.357758 56.151096,225.690903 53.987740,226.024048 
	C53.360756,226.138260 52.733772,226.252457 51.465477,226.218109 
	C50.229931,226.277039 49.635700,226.484497 49.041466,226.691971 
	C33.337128,227.414413 17.632784,228.136856 1.464220,228.929642 
	C1.000000,224.975449 1.000000,220.950912 1.000000,216.463181 
z"/>
<path fill="#01499E" opacity="1.000000" stroke="none" 
	d="
M34.655846,175.128571 
	C34.890533,175.127731 35.125221,175.126877 35.876778,175.473267 
	C37.179352,176.542786 37.965061,177.265060 39.125874,178.332169 
	C35.812176,179.551453 33.019428,180.579056 29.274834,181.956879 
	C34.961243,184.986069 39.476799,187.646896 44.203938,189.854691 
	C53.101955,194.010513 62.026299,198.142578 71.130592,201.810715 
	C75.876457,203.722824 81.028801,204.626083 86.221329,206.262054 
	C94.286850,209.015366 102.136368,211.467529 109.961777,213.994354 
	C111.110641,214.365311 112.144974,215.090973 113.232300,215.652512 
	C112.482674,216.765747 111.733040,217.878983 110.535583,218.991058 
	C107.402000,218.984665 104.716232,218.979416 101.946304,218.604828 
	C97.254662,216.831512 92.589119,215.591339 88.053970,213.983398 
	C81.966492,211.825073 75.979797,209.382507 69.615555,206.903671 
	C67.561256,206.188965 65.761383,205.804443 64.134064,205.048492 
	C52.772221,199.770462 41.485004,194.330292 30.088686,189.128738 
	C25.751549,187.149170 21.797794,183.412186 16.255644,185.590744 
	C15.572492,185.859283 14.271333,184.555649 13.045684,183.861053 
	C14.504291,183.111359 15.536394,182.580872 16.933630,181.862701 
	C11.268905,178.711838 6.134450,175.855927 0.999998,173.000000 
	C1.000000,170.958008 1.000000,168.916016 1.356541,166.465988 
	C5.092390,168.117264 8.481190,170.161194 11.849048,172.239075 
	C19.017101,176.661530 26.144199,181.338745 34.655846,175.128571 
z"/>
<path fill="#D8EFFB" opacity="1.000000" stroke="none" 
	d="
M560.979309,94.101349 
	C570.595337,95.405174 580.229797,96.588707 589.821533,98.051468 
	C597.291870,99.190704 604.709229,100.677498 612.575073,102.004913 
	C613.000000,106.689255 613.000000,111.378510 613.000000,116.533875 
	C607.297485,115.477951 601.592163,113.966576 595.893188,112.431335 
	C587.424988,110.150101 578.961304,107.851967 570.246948,104.864014 
	C569.929749,102.700333 569.861267,101.233643 569.860107,101.207695 
	C566.300842,98.359589 563.640076,96.230469 560.979309,94.101349 
z"/>
<path fill="#0D74BA" opacity="1.000000" stroke="none" 
	d="
M0.999998,173.399994 
	C6.134450,175.855927 11.268905,178.711838 16.933630,181.862701 
	C15.536394,182.580872 14.504291,183.111359 13.045684,183.861053 
	C14.271333,184.555649 15.572492,185.859283 16.255644,185.590744 
	C21.797794,183.412186 25.751549,187.149170 30.088686,189.128738 
	C41.485004,194.330292 52.772221,199.770462 64.134064,205.048492 
	C65.761383,205.804443 67.561256,206.188965 69.558823,207.253174 
	C68.189064,208.531021 66.541763,209.301071 64.581329,210.059570 
	C63.850620,210.037735 63.433044,210.027420 63.015469,210.017120 
	C63.015469,210.017120 62.996052,209.998550 62.896404,209.742905 
	C62.487827,209.343887 62.178902,209.200516 61.869976,209.057159 
	C48.431892,202.688400 34.806252,196.675598 21.661863,189.749466 
	C17.315739,187.459351 13.972428,186.877899 9.803563,189.063644 
	C7.172209,190.443283 4.362985,191.483673 1.316771,192.838104 
	C1.000000,191.611115 1.000000,190.222214 1.315584,188.255478 
	C4.642651,186.388107 7.654133,185.098587 11.552361,183.429367 
	C7.607445,181.025803 4.303721,179.012894 0.999999,177.000000 
	C1.000000,175.933334 1.000000,174.866653 0.999998,173.399994 
z"/>
<path fill="#0D74BA" opacity="1.000000" stroke="none" 
	d="
M34.469635,174.870697 
	C26.144199,181.338745 19.017101,176.661530 11.849048,172.239075 
	C8.481190,170.161194 5.092390,168.117264 1.356541,166.028976 
	C1.000000,160.977905 1.000000,155.955811 1.000001,150.466858 
	C5.535997,153.491913 10.013405,157.063400 14.622074,160.456604 
	C21.124943,165.244492 27.724947,169.900467 34.469635,174.870697 
z"/>
<path fill="#D8EFFB" opacity="1.000000" stroke="none" 
	d="
M0.999999,177.458069 
	C4.303721,179.012894 7.607445,181.025803 11.552361,183.429367 
	C7.654133,185.098587 4.642651,186.388107 1.315584,187.838806 
	C1.000000,184.638718 1.000000,181.277420 0.999999,177.458069 
z"/>
<path fill="#C2E6F9" opacity="1.000000" stroke="none" 
	d="
M522.978577,98.928154 
	C512.908264,103.347702 502.819763,107.726364 492.772736,112.198280 
	C482.718567,116.673386 472.705933,121.241699 462.675079,125.769173 
	C462.704803,126.199333 462.734497,126.629494 462.764191,127.059654 
	C466.200134,127.059654 469.636047,127.059654 473.532837,127.526138 
	C473.993652,130.436264 473.993652,132.879898 473.993652,135.586273 
	C486.583374,135.982605 480.052582,145.946518 482.535645,151.346878 
	C489.845764,153.187256 489.995605,153.383423 489.999695,161.110413 
	C490.002502,166.411911 490.002441,171.713425 490.003662,177.014923 
	C482.992065,178.014359 475.977600,178.994217 468.970581,180.024796 
	C466.774994,180.347717 464.599487,180.807297 462.354095,182.358856 
	C470.112427,184.821945 477.978180,186.994370 485.605469,189.812164 
	C499.073700,194.787750 512.397522,200.154480 525.779541,205.363007 
	C527.939697,206.203781 530.088806,207.073105 532.395996,208.264954 
	C528.704041,210.757477 529.974731,213.570648 531.287354,216.642181 
	C532.147461,218.654984 532.374939,220.938110 532.885803,223.100159 
	C530.497253,222.093079 528.108765,221.085983 525.315552,219.695404 
	C524.249817,218.886597 523.588745,218.461288 522.927734,218.035980 
	C513.713928,214.007233 504.537140,209.891098 495.276886,205.972061 
	C483.911224,201.162018 472.475891,196.516663 461.347168,191.411942 
	C464.703094,190.838043 465.751617,189.060165 463.783112,186.855362 
	C461.942139,184.793381 459.225494,183.513199 456.687134,181.626099 
	C452.945496,179.983261 449.410950,178.603271 445.953613,176.812698 
	C445.507050,172.026108 446.572754,165.988144 444.113403,163.636108 
	C439.632416,159.350662 437.962952,155.018173 437.971161,149.316040 
	C437.976746,145.439346 436.529633,143.156525 432.109100,144.763046 
	C431.657349,144.927216 431.015411,144.568115 430.352051,144.428802 
	C431.374359,142.774185 432.198090,141.440948 433.340881,139.936966 
	C441.188477,136.142532 448.716949,132.518845 456.245453,128.895157 
	C456.107971,128.568680 455.970459,128.242203 455.832977,127.915733 
	C448.169434,128.522888 440.505920,129.130051 432.943451,129.414856 
	C441.390076,124.049850 449.689606,118.928993 458.093109,113.984810 
	C468.045502,108.129326 478.087524,102.426155 488.090668,96.656960 
	C487.958862,96.229683 487.827026,95.802414 487.695221,95.375137 
	C476.987762,96.210464 466.267609,96.911263 455.576752,97.922028 
	C446.373993,98.792107 437.204681,100.015663 428.000519,100.750275 
	C427.957581,100.196625 427.934692,99.975632 427.911804,99.754631 
	C429.592651,99.018692 431.225525,97.791573 432.961731,97.622002 
	C452.692566,95.694946 472.439148,93.929436 492.571350,92.507965 
	C492.551178,93.751305 492.141235,94.607399 491.572083,95.795891 
	C500.104065,96.208771 508.334930,96.497040 516.545105,97.078186 
	C518.722351,97.232307 520.835815,98.286972 522.978577,98.928154 
z"/>
<path fill="#B1DFF8" opacity="1.000000" stroke="none" 
	d="
M436.183563,184.618927 
	C422.425690,187.432831 408.652405,190.174210 394.915619,193.087509 
	C386.512207,194.869690 378.164825,196.915833 369.467651,198.484528 
	C370.111481,197.141418 371.079926,196.157181 372.048370,195.172958 
	C370.730225,194.405869 369.942169,194.391479 369.322174,194.707184 
	C364.018341,197.407761 361.412872,195.980087 360.942413,190.272858 
	C360.799133,188.534348 359.975372,186.855286 359.492462,185.140762 
	C358.080444,180.127731 352.756042,182.390457 350.173492,179.725586 
	C352.610199,178.450638 354.878357,177.558563 357.007507,176.409058 
	C362.420105,173.486893 367.770508,170.449509 373.445251,167.416229 
	C374.727966,167.474976 375.711304,167.575714 377.088867,167.808044 
	C378.264099,168.221481 379.028046,168.569626 379.828522,168.775436 
	C397.099915,173.216263 414.384430,177.606552 431.635223,182.125824 
	C433.257690,182.550858 434.672394,183.769012 436.183563,184.618927 
z"/>
<path fill="#6FC9F3" opacity="1.000000" stroke="none" 
	d="
M436.580475,184.681076 
	C434.672394,183.769012 433.257690,182.550858 431.635223,182.125824 
	C414.384430,177.606552 397.099915,173.216263 379.828522,168.775436 
	C379.028046,168.569626 378.264099,168.221481 377.247864,167.502991 
	C378.046417,166.152084 379.080261,165.237823 380.498566,163.983551 
	C378.094360,163.218124 376.488708,162.706940 375.086517,161.897018 
	C385.051666,156.138641 394.790955,150.638397 404.583527,145.234772 
	C410.347260,142.054306 416.195587,139.027161 422.045410,136.299591 
	C423.384003,138.766876 424.683044,140.865616 425.611786,142.993500 
	C414.415771,148.542984 403.591248,154.065613 392.763458,159.581863 
	C390.398865,160.786530 388.022766,161.968506 384.382355,163.799469 
	C397.041229,166.440887 408.199646,168.693909 419.321716,171.113861 
	C428.196259,173.044785 437.026520,175.179184 445.876434,177.223267 
	C449.410950,178.603271 452.945496,179.983261 456.360779,181.677856 
	C455.181580,182.302811 454.121643,182.613144 452.786530,182.922684 
	C452.328156,182.931473 452.144928,182.941055 451.535645,182.944061 
	C447.744507,183.577255 444.379456,184.217026 441.014404,184.856796 
	C439.668732,184.818939 438.323059,184.781082 436.580475,184.681076 
z"/>
<path fill="#A6DCF8" opacity="1.000000" stroke="none" 
	d="
M349.941650,179.991211 
	C352.756042,182.390457 358.080444,180.127731 359.492462,185.140762 
	C359.975372,186.855286 360.799133,188.534348 360.942413,190.272858 
	C361.412872,195.980087 364.018341,197.407761 369.322174,194.707184 
	C369.942169,194.391479 370.730225,194.405869 372.048370,195.172958 
	C371.079926,196.157181 370.111481,197.141418 369.065308,198.450470 
	C368.542206,198.838379 368.096832,198.901474 367.151672,198.737854 
	C366.093231,198.918793 365.534546,199.326431 364.975830,199.734039 
	C364.533478,199.802231 364.091125,199.870407 363.101135,199.667908 
	C360.474182,198.320740 358.093231,196.379730 357.997192,200.987030 
	C350.282410,202.665298 342.567657,204.343552 334.417480,205.632782 
	C332.430756,204.386093 330.164185,202.398483 329.444336,202.854202 
	C324.791016,205.799942 322.748322,202.063477 321.196686,199.407562 
	C319.765320,196.957581 319.746704,193.616806 323.978973,192.748260 
	C324.099274,192.723557 323.996399,191.611221 324.317841,190.854919 
	C333.072601,187.132950 341.507111,183.562073 349.941650,179.991211 
z"/>
<path fill="#CAE9FB" opacity="1.000000" stroke="none" 
	d="
M532.973877,223.432037 
	C532.374939,220.938110 532.147461,218.654984 531.287354,216.642181 
	C529.974731,213.570648 528.704041,210.757477 532.761658,208.320709 
	C541.238525,211.751099 549.518677,215.426773 557.760254,219.186874 
	C561.664001,220.967880 565.494019,222.910233 569.723877,225.248718 
	C570.743408,226.136749 571.396545,226.555557 572.049744,226.974365 
	C572.049744,226.974365 572.524292,226.978638 572.760925,226.995605 
	C573.987793,231.827347 571.322632,234.137115 565.892639,235.148911 
	C568.315735,236.534378 569.611450,237.275223 571.494934,238.352173 
	C570.043884,240.063980 568.830872,241.495026 567.260254,242.995880 
	C566.368225,242.886871 565.833801,242.708038 565.139893,241.919876 
	C564.632629,238.755524 563.919678,236.866013 560.945740,239.096344 
	C551.651123,233.985519 542.356567,228.874710 532.973877,223.432037 
z"/>
<path fill="#9FD8F6" opacity="1.000000" stroke="none" 
	d="
M323.997559,191.006012 
	C323.996399,191.611221 324.099274,192.723557 323.978973,192.748260 
	C319.746704,193.616806 319.765320,196.957581 321.196686,199.407562 
	C322.748322,202.063477 324.791016,205.799942 329.444336,202.854202 
	C330.164185,202.398483 332.430756,204.386093 333.990723,205.618362 
	C333.201569,206.300323 332.403748,206.607697 331.118713,206.693085 
	C329.770721,206.902527 328.909912,207.333954 328.049133,207.765381 
	C318.293945,209.795700 308.538727,211.826004 298.474640,213.475037 
	C299.265045,212.478226 300.364349,211.862701 301.656586,211.139145 
	C301.112427,207.491333 300.556305,203.763138 300.317688,199.872437 
	C302.747803,198.820435 304.860443,197.930939 307.357574,197.031540 
	C313.160553,195.016434 318.579071,193.011215 323.997559,191.006012 
z"/>
<path fill="#2985C8" opacity="1.000000" stroke="none" 
	d="
M62.969635,210.321655 
	C63.433044,210.027420 63.850620,210.037735 64.840866,210.319397 
	C76.507858,213.753174 87.602180,216.915604 98.696495,220.078033 
	C87.758560,221.709824 76.820618,223.341629 65.441589,224.923340 
	C65.000504,222.494461 65.000504,220.115662 65.000504,217.751236 
	C59.284195,217.809372 59.284195,217.809372 62.969635,210.321655 
z"/>
<path fill="#6CACDF" opacity="1.000000" stroke="none" 
	d="
M238.423248,223.166351 
	C229.944885,224.329559 221.496384,226.121109 212.981964,226.525879 
	C194.967865,227.382248 176.919357,227.514542 158.777847,227.575012 
	C164.627762,227.126358 170.589737,227.157791 176.538498,226.892441 
	C178.128113,226.821533 179.677292,225.843491 181.650543,225.257080 
	C183.712219,225.186203 185.368378,225.140121 187.451355,225.111694 
	C189.586166,225.070190 191.294144,225.011032 193.340744,224.954208 
	C194.519043,224.710602 195.358719,224.464691 196.642639,224.212311 
	C200.178192,223.959076 203.287537,223.847580 206.357132,223.438110 
	C213.278824,222.514740 220.180847,221.443970 227.147781,220.721497 
	C228.128555,220.708771 229.052444,220.407715 230.286774,220.029602 
	C231.408279,219.709091 232.219345,219.465668 233.076019,219.584335 
	C234.888840,221.019745 236.656052,222.093048 238.423248,223.166351 
z"/>
<path fill="#96D0F3" opacity="1.000000" stroke="none" 
	d="
M300.000183,200.034943 
	C300.556305,203.763138 301.112427,207.491333 301.656586,211.139145 
	C300.364349,211.862701 299.265045,212.478226 298.079376,213.418579 
	C294.249054,214.470398 290.505096,215.197388 286.065125,215.633423 
	C282.027496,215.279175 280.340485,213.845764 280.968414,210.270050 
	C281.160522,209.176086 280.964813,208.014023 281.211487,206.636627 
	C287.650940,204.271713 293.825562,202.153336 300.000183,200.034943 
z"/>
<path fill="#2985C8" opacity="1.000000" stroke="none" 
	d="
M181.245026,225.281906 
	C179.677292,225.843491 178.128113,226.821533 176.538498,226.892441 
	C170.589737,227.157791 164.627762,227.126358 158.335922,227.439880 
	C154.604675,227.486862 151.208237,227.300171 147.090302,226.980118 
	C145.941010,226.882324 145.513214,226.917877 145.085403,226.953430 
	C130.612442,224.985703 116.139488,223.017960 101.334747,220.607712 
	C101.345467,219.768188 101.687973,219.371170 102.030472,218.974152 
	C104.716232,218.979416 107.402000,218.984665 110.792519,219.286285 
	C125.321159,221.372162 139.145050,223.161682 153.440491,224.973663 
	C163.023041,225.091385 172.134033,225.186646 181.245026,225.281906 
z"/>
<path fill="#8CC9EF" opacity="1.000000" stroke="none" 
	d="
M280.946686,206.883148 
	C280.964813,208.014023 281.160522,209.176086 280.968414,210.270050 
	C280.340485,213.845764 282.027496,215.279175 285.639893,215.594116 
	C280.870514,216.848663 275.830353,217.851593 270.376343,218.447037 
	C268.352631,215.946320 265.488525,214.877045 265.212769,211.660980 
	C269.956268,209.906586 274.441742,208.396622 279.263855,206.903122 
	C280.049255,206.907455 280.497986,206.895309 280.946686,206.883148 
z"/>
<path fill="#0361AE" opacity="1.000000" stroke="none" 
	d="
M101.946304,218.604828 
	C101.687973,219.371170 101.345467,219.768188 100.978516,220.434845 
	C100.439720,220.609192 99.925377,220.513916 99.053764,220.248352 
	C87.602180,216.915604 76.507858,213.753174 65.154007,210.330933 
	C66.541763,209.301071 68.189064,208.531021 69.893097,207.411469 
	C75.979797,209.382507 81.966492,211.825073 88.053970,213.983398 
	C92.589119,215.591339 97.254662,216.831512 101.946304,218.604828 
z"/>
<path fill="#84C1EB" opacity="1.000000" stroke="none" 
	d="
M264.954712,211.905426 
	C265.488525,214.877045 268.352631,215.946320 269.970947,218.387543 
	C263.901245,219.782883 257.822998,220.830231 251.129150,221.604553 
	C249.563141,220.777969 248.612717,220.224442 247.201248,219.402405 
	C249.372177,218.501450 251.005981,217.823425 253.746399,216.686127 
	C251.573471,216.267029 250.670502,216.092880 250.063446,215.683731 
	C253.245804,214.612228 256.132263,213.775696 259.398254,212.956848 
	C261.503418,212.618179 263.229065,212.261810 264.954712,211.905426 
M259.411743,214.482498 
	C259.411743,214.482498 259.522705,214.416855 259.411743,214.482498 
z"/>
<path fill="#B1DFF8" opacity="1.000000" stroke="none" 
	d="
M453.061707,182.923492 
	C454.121643,182.613144 455.181580,182.302811 456.567871,181.940720 
	C459.225494,183.513199 461.942139,184.793381 463.783112,186.855362 
	C465.751617,189.060165 464.703094,190.838043 461.240692,191.065292 
	C454.361511,189.242035 447.865326,187.377258 441.191772,185.184631 
	C444.379456,184.217026 447.744507,183.577255 451.637695,183.122482 
	C452.464478,183.179474 452.763092,183.051483 453.061707,182.923492 
z"/>
<path fill="#78B7E4" opacity="1.000000" stroke="none" 
	d="
M249.767532,215.918701 
	C250.670502,216.092880 251.573471,216.267029 253.746399,216.686127 
	C251.005981,217.823425 249.372177,218.501450 247.201248,219.402405 
	C248.612717,220.224442 249.563141,220.777969 250.707367,221.556366 
	C247.017105,222.261047 243.133041,222.740860 238.836121,223.193512 
	C236.656052,222.093048 234.888840,221.019745 233.480042,219.513763 
	C239.148132,218.026962 244.457825,216.972839 249.767532,215.918701 
z"/>
<path fill="#D2ECFB" opacity="1.000000" stroke="none" 
	d="
M561.007690,239.424683 
	C563.919678,236.866013 564.632629,238.755524 564.971619,241.685944 
	C563.665100,241.291916 562.367371,240.522476 561.007690,239.424683 
z"/>
<path fill="#B1DFF8" opacity="1.000000" stroke="none" 
	d="
M358.383209,201.002258 
	C358.093231,196.379730 360.474182,198.320740 362.765045,199.666000 
	C361.574158,200.295670 360.171692,200.656570 358.383209,201.002258 
z"/>
<path fill="#2985C8" opacity="1.000000" stroke="none" 
	d="
M54.294182,226.127991 
	C56.151096,225.690903 58.314449,225.357758 60.923080,225.099930 
	C59.112446,225.527481 56.856537,225.879700 54.294182,226.127991 
z"/>
<path fill="#A6DCF8" opacity="1.000000" stroke="none" 
	d="
M328.376038,207.805267 
	C328.909912,207.333954 329.770721,206.902527 330.796051,206.687836 
	C330.208038,207.218079 329.455475,207.531616 328.376038,207.805267 
z"/>
<path fill="#CAE9FB" opacity="1.000000" stroke="none" 
	d="
M522.993530,218.349091 
	C523.588745,218.461288 524.249817,218.886597 524.958130,219.631195 
	C524.356750,219.521072 523.708069,219.091644 522.993530,218.349091 
z"/>
<path fill="#B1DFF8" opacity="1.000000" stroke="none" 
	d="
M365.268738,199.781860 
	C365.534546,199.326431 366.093231,198.918793 366.813538,198.723724 
	C366.503998,199.234100 366.032806,199.531891 365.268738,199.781860 
z"/>
<path fill="#2985C8" opacity="1.000000" stroke="none" 
	d="
M49.359379,226.742065 
	C49.635700,226.484497 50.229931,226.277039 51.151325,226.153046 
	C50.878090,226.421722 50.277691,226.606949 49.359379,226.742065 
z"/>
<path fill="#6CACDF" opacity="1.000000" stroke="none" 
	d="
M145.235168,227.120087 
	C145.513214,226.917877 145.941010,226.882324 146.682251,226.927750 
	C146.458755,227.101410 145.921844,227.194092 145.235168,227.120087 
z"/>
<path fill="#FBFDFE" opacity="1.000000" stroke="none" 
	d="
M157.996185,152.818390 
	C158.225937,147.134552 160.129684,145.511765 165.622971,145.901978 
	C168.853409,146.131470 172.130219,145.764221 175.351425,146.053070 
	C179.174759,146.395905 182.960739,147.155304 185.489182,147.540253 
	C189.852142,146.551926 193.265106,145.178406 196.705231,145.106613 
	C209.507553,144.839432 222.318802,145.000107 235.126709,144.999954 
	C243.523743,144.999863 251.921432,144.939713 260.317474,145.031158 
	C263.291962,145.063553 265.209503,144.305664 265.012146,140.881378 
	C264.855988,138.172073 266.141327,136.935883 268.910217,137.016144 
	C273.144501,137.138870 277.385223,137.047607 281.618439,137.189987 
	C282.314697,137.213409 282.986420,137.967682 283.599823,138.975494 
	C277.354004,142.045883 271.177795,144.524933 264.633331,147.015076 
	C261.820312,148.071609 259.375610,149.117065 256.541107,150.165955 
	C253.768539,150.411575 251.385742,150.653778 248.689819,150.628876 
	C240.510391,150.361771 232.644073,150.361771 224.777740,150.361771 
	C224.778198,150.927917 224.778656,151.494080 224.779114,152.060226 
	C227.526703,152.060226 230.280319,151.944153 233.020569,152.085983 
	C237.755371,152.331024 242.481903,152.736176 246.908875,153.146606 
	C245.696259,153.972900 244.786652,154.726715 243.476791,155.559372 
	C238.717667,157.097763 234.358795,158.557281 229.678864,160.036987 
	C228.574326,160.396881 227.790878,160.736618 226.708466,161.062317 
	C225.932739,161.347916 225.455994,161.647568 224.603058,161.983582 
	C218.433273,164.298050 212.639679,166.576141 206.465271,168.882294 
	C200.039963,171.155441 193.995483,173.400528 187.564941,175.712585 
	C178.466904,178.857986 169.754929,181.936401 160.661789,185.039856 
	C157.880310,186.029678 155.533066,187.166687 153.069443,187.926193 
	C146.347122,189.998627 139.575684,191.911774 132.435791,193.909363 
	C121.709801,196.753204 111.371704,199.575668 100.624001,202.456924 
	C97.940765,202.286575 95.525604,202.473312 93.418121,201.756027 
	C84.475281,198.712326 75.443604,195.816589 66.788963,192.070663 
	C57.936344,188.239029 49.486046,183.477875 40.859634,179.123627 
	C40.944180,178.571930 41.028725,178.020248 41.113274,177.468567 
	C54.725872,173.926392 68.338470,170.384216 82.351181,166.871155 
	C97.839516,164.107162 112.927742,161.314041 128.243927,158.598114 
	C128.828964,158.635681 129.073608,158.448792 129.661346,158.133209 
	C132.851471,157.760361 135.586075,157.368927 138.385529,157.108673 
	C138.690292,157.272812 138.837097,157.170868 138.908142,156.966522 
	C138.925461,156.999008 138.942108,156.927292 139.388336,156.998657 
	C150.525635,155.993408 161.216721,154.916794 172.364136,153.902100 
	C187.321533,153.217178 201.822586,152.470337 216.323654,151.723480 
	C198.767288,151.171356 181.255768,151.808258 163.745102,152.467865 
	C163.448593,152.479034 163.162445,152.765503 162.465729,152.885559 
	C160.705399,152.837860 159.350784,152.828125 157.996185,152.818390 
M168.174698,150.753922 
	C168.119461,150.587540 168.064240,150.421173 168.009003,150.254791 
	C167.955139,150.422165 167.901291,150.589539 168.174698,150.753922 
z"/>
<path fill="#CEEAFB" opacity="1.000000" stroke="none" 
	d="
M560.522339,94.073029 
	C563.640076,96.230469 566.300842,98.359589 569.860107,101.207695 
	C569.861267,101.233643 569.929749,102.700333 569.996216,104.591827 
	C569.994202,105.016647 569.496765,105.003639 569.093994,104.655594 
	C566.662659,100.765602 563.873962,101.639809 561.004333,102.984642 
	C550.520569,101.532898 540.036743,100.081154 529.482605,98.051743 
	C532.504211,96.158081 535.596130,94.842102 538.688110,93.526115 
	C538.608276,93.036263 538.528442,92.546410 538.448608,92.056557 
	C525.623535,91.694809 512.798462,91.333069 499.973389,90.971313 
	C502.430115,89.245773 504.729706,87.217621 507.370392,85.846237 
	C519.847473,79.366554 532.231628,72.658173 545.013977,66.832085 
	C555.181519,62.197773 565.871643,58.707867 576.340027,54.736977 
	C578.934326,53.752911 581.568420,52.873905 584.578918,51.926300 
	C584.259338,52.665333 583.343445,53.318233 582.874390,54.206978 
	C581.996094,55.871078 580.773499,57.669464 580.766724,59.416168 
	C580.748718,64.007095 582.192078,68.743759 578.780762,72.789474 
	C575.889221,76.218742 581.148438,76.786934 580.988281,79.617424 
	C569.274475,83.664581 557.551392,87.334557 545.102905,91.047607 
	C544.048096,91.838715 543.718628,92.586746 543.389221,93.334778 
	C543.922974,93.230179 544.456665,93.125572 544.990417,93.020966 
	C550.015442,93.362221 555.040405,93.703468 560.522339,94.073029 
z"/>
<path fill="#9FD8F6" opacity="1.000000" stroke="none" 
	d="
M265.001648,147.003998 
	C271.177795,144.524933 277.354004,142.045883 283.769165,139.305267 
	C292.755524,136.053680 301.502960,133.063660 310.867126,130.326447 
	C312.650085,130.037903 313.816254,129.496521 314.982422,128.955139 
	C317.403503,127.992851 319.824615,127.030563 322.577637,126.444290 
	C322.365753,128.744308 321.821899,130.668335 321.278046,132.592346 
	C321.737854,132.817169 322.197693,133.041977 322.657501,133.266800 
	C323.857330,131.699265 325.057129,130.131729 326.987122,127.610252 
	C326.987122,130.369034 326.987122,132.115631 326.642151,133.970367 
	C321.859039,136.003052 317.420837,137.927643 312.989075,139.496033 
	C313.087372,133.979004 309.179840,137.784134 306.696564,135.271393 
	C306.899536,138.539856 307.013031,140.367264 306.867920,142.431091 
	C300.905518,145.434540 295.201691,148.201538 288.613678,151.397461 
	C290.930481,152.076614 292.259613,152.709412 293.632751,152.826477 
	C299.419678,153.319855 305.242279,153.459137 311.008667,154.110260 
	C317.038422,154.791092 323.018768,155.909943 329.021240,157.230270 
	C329.033386,158.405441 329.045013,159.187668 328.676086,159.979645 
	C327.537811,159.995255 326.779999,160.001083 325.802704,159.687286 
	C321.401123,158.717941 317.239929,157.824707 313.033112,157.463852 
	C300.046326,156.349930 287.068665,152.303223 273.786530,156.795990 
	C272.045410,155.587219 270.540100,154.670380 269.497437,153.788574 
	C274.922333,153.771500 279.884491,153.719406 284.846680,153.667328 
	C284.818115,153.115646 284.789520,152.563965 284.760925,152.012283 
	C278.189972,151.616272 271.618988,151.220261 265.029907,150.444595 
	C265.008392,149.044632 265.005005,148.024307 265.001648,147.003998 
z"/>
<path fill="#0D74BA" opacity="1.000000" stroke="none" 
	d="
M81.951080,166.842010 
	C68.338470,170.384216 54.725872,173.926392 41.113274,177.468567 
	C41.028725,178.020248 40.944180,178.571930 40.859634,179.123627 
	C49.486046,183.477875 57.936344,188.239029 66.788963,192.070663 
	C75.443604,195.816589 84.475281,198.712326 93.418121,201.756027 
	C95.525604,202.473312 97.940765,202.286575 100.617310,202.833130 
	C101.060822,203.397812 101.101410,203.645065 100.673615,203.923218 
	C95.469330,204.631088 90.733437,205.308060 85.997536,205.985031 
	C81.028801,204.626083 75.876457,203.722824 71.130592,201.810715 
	C62.026299,198.142578 53.101955,194.010513 44.203938,189.854691 
	C39.476799,187.646896 34.961243,184.986069 29.274834,181.956879 
	C33.019428,180.579056 35.812176,179.551453 39.125874,178.332169 
	C37.965061,177.265060 37.179352,176.542786 36.219070,175.555481 
	C49.146179,171.892792 62.247860,168.495132 76.124062,165.112305 
	C78.582748,165.698776 80.266914,166.270386 81.951080,166.842010 
z"/>
<path fill="#B9E3FA" opacity="1.000000" stroke="none" 
	d="
M427.525391,99.792259 
	C427.934692,99.975632 427.957581,100.196625 427.638428,100.896393 
	C424.124176,102.221756 420.942719,103.035507 417.781281,103.920654 
	C404.635956,107.601112 391.501678,111.321053 378.352631,114.988129 
	C373.262970,116.407562 368.144897,117.725128 362.985016,118.743851 
	C361.294434,117.284271 359.658600,116.169945 358.022736,115.055618 
	C366.242584,112.702591 374.398712,110.086578 382.701080,108.074005 
	C390.282867,106.236107 398.046173,105.160690 405.684509,103.537476 
	C410.125946,102.593636 414.436035,101.014557 418.887665,100.141884 
	C421.555939,99.618813 424.383209,99.906563 427.525391,99.792259 
z"/>
<path fill="#9FD8F6" opacity="1.000000" stroke="none" 
	d="
M499.584717,90.997314 
	C512.798462,91.333069 525.623535,91.694809 538.448608,92.056557 
	C538.528442,92.546410 538.608276,93.036263 538.688110,93.526115 
	C535.596130,94.842102 532.504211,96.158081 529.200500,97.762131 
	C527.243408,98.352524 525.497986,98.654861 523.365601,98.942673 
	C520.835815,98.286972 518.722351,97.232307 516.545105,97.078186 
	C508.334930,96.497040 500.104065,96.208771 491.572083,95.795891 
	C492.141235,94.607399 492.551178,93.751305 493.034973,92.583054 
	C495.137878,91.855026 497.166962,91.439163 499.584717,90.997314 
z"/>
<path fill="#A6DCF8" opacity="1.000000" stroke="none" 
	d="
M326.987122,133.862244 
	C326.987122,132.115631 326.987122,130.369034 326.987122,127.610252 
	C325.057129,130.131729 323.857330,131.699265 322.657501,133.266800 
	C322.197693,133.041977 321.737854,132.817169 321.278046,132.592346 
	C321.821899,130.668335 322.365753,128.744308 322.958588,126.464272 
	C326.332611,125.031342 329.657654,123.954437 333.750549,122.908325 
	C335.354248,122.331009 336.190155,121.722900 337.026031,121.114792 
	C337.732269,121.050255 338.438538,120.985725 339.750916,120.854965 
	C340.571533,120.528847 340.785950,120.268959 341.000397,120.009064 
	C342.084961,119.669357 343.169495,119.329643 344.819550,118.909622 
	C345.665619,118.677856 345.869659,118.456047 345.997192,118.163872 
	C347.018005,118.067642 348.038849,117.971405 349.729950,118.082626 
	C351.278442,119.884155 352.156647,121.478226 352.787781,123.332344 
	C348.689331,125.048523 344.837982,126.504662 340.711823,127.681953 
	C337.112610,127.623131 333.788208,127.843147 330.463776,128.063156 
	C330.505920,128.474396 330.548035,128.885635 330.590149,129.296860 
	C331.720398,129.857025 332.850647,130.417206 333.753723,131.232574 
	C331.346771,132.279266 329.166931,133.070755 326.987122,133.862244 
z"/>
<path fill="#2985C8" opacity="1.000000" stroke="none" 
	d="
M82.351181,166.871155 
	C80.266914,166.270386 78.582748,165.698776 76.551186,165.106400 
	C87.961426,163.023834 99.718910,160.961166 111.476784,158.900696 
	C115.110138,158.263992 118.744522,157.633179 123.031876,157.070267 
	C124.389305,157.031174 125.093300,156.921478 125.797287,156.811798 
	C126.276627,156.640198 126.755966,156.468597 127.723450,156.444962 
	C128.477142,156.465714 128.742676,156.338516 129.008224,156.211334 
	C129.478180,156.148651 129.948120,156.085983 130.980133,156.077118 
	C131.946030,156.055984 132.349884,155.981018 132.753723,155.906036 
	C133.258804,155.755692 133.763901,155.605347 134.912872,155.638885 
	C136.685211,156.190948 137.813660,156.559113 138.942108,156.927292 
	C138.942108,156.927292 138.925461,156.999008 138.812408,156.943192 
	C138.699371,156.887375 138.320663,156.977478 138.320663,156.977478 
	C135.586075,157.368927 132.851471,157.760361 129.437134,158.104675 
	C128.437805,158.096176 128.190674,158.250641 128.015976,158.520935 
	C112.927742,161.314041 97.839516,164.107162 82.351181,166.871155 
z"/>
<path fill="#4F99D4" opacity="1.000000" stroke="none" 
	d="
M139.388336,156.998657 
	C137.813660,156.559113 136.685211,156.190948 135.309219,155.636108 
	C140.546478,154.928040 146.034241,154.435135 151.514496,153.869751 
	C153.428467,153.672318 155.324020,153.296219 157.612091,152.910065 
	C159.350784,152.828125 160.705399,152.837860 162.910828,152.935364 
	C166.477036,153.295486 169.192429,153.567825 171.907806,153.840179 
	C161.216721,154.916794 150.525635,155.993408 139.388336,156.998657 
z"/>
<path fill="#B9E3FA" opacity="1.000000" stroke="none" 
	d="
M353.034882,123.072311 
	C352.156647,121.478226 351.278442,119.884155 350.113647,118.056892 
	C351.649750,116.936111 353.472473,116.048523 355.578247,115.533142 
	C354.879669,116.863579 353.898041,117.821815 352.544647,119.142914 
	C356.404114,119.142914 359.291901,119.142914 362.062531,119.475677 
	C358.975220,120.896400 356.005066,121.984352 353.034882,123.072311 
z"/>
<path fill="#A6DCF8" opacity="1.000000" stroke="none" 
	d="
M362.179657,119.142914 
	C359.291901,119.142914 356.404114,119.142914 352.544647,119.142914 
	C353.898041,117.821815 354.879669,116.863579 355.950562,115.585526 
	C356.478088,115.193878 356.916351,115.122047 357.688690,115.052917 
	C359.658600,116.169945 361.294434,117.284271 362.769836,118.757828 
	C362.609375,119.117043 362.179657,119.142914 362.179657,119.142914 
z"/>
<path fill="#A6DCF8" opacity="1.000000" stroke="none" 
	d="
M314.618469,128.949768 
	C313.816254,129.496521 312.650085,130.037903 311.258179,130.325104 
	C312.106445,129.695435 313.180481,129.319916 314.618469,128.949768 
z"/>
<path fill="#B9E3FA" opacity="1.000000" stroke="none" 
	d="
M336.678467,121.092316 
	C336.190155,121.722900 335.354248,122.331009 334.149017,122.890968 
	C334.630066,122.251823 335.480499,121.660828 336.678467,121.092316 
z"/>
<path fill="#4F99D4" opacity="1.000000" stroke="none" 
	d="
M125.546799,156.681976 
	C125.093300,156.921478 124.389305,157.031174 123.413742,157.107666 
	C123.860207,156.900375 124.578255,156.726273 125.546799,156.681976 
z"/>
<path fill="#4F99D4" opacity="1.000000" stroke="none" 
	d="
M132.566422,155.776550 
	C132.349884,155.981018 131.946030,156.055984 131.336151,156.098862 
	C131.546448,155.926865 131.962784,155.786957 132.566422,155.776550 
z"/>
<path fill="#B9E3FA" opacity="1.000000" stroke="none" 
	d="
M340.761688,120.091949 
	C340.785950,120.268959 340.571533,120.528847 340.105774,120.853638 
	C340.077332,120.670631 340.300140,120.422729 340.761688,120.091949 
z"/>
<path fill="#B9E3FA" opacity="1.000000" stroke="none" 
	d="
M345.766876,118.210846 
	C345.869659,118.456047 345.665619,118.677856 345.165039,118.900711 
	C345.053650,118.660622 345.250824,118.422531 345.766876,118.210846 
z"/>
<path fill="#4F99D4" opacity="1.000000" stroke="none" 
	d="
M128.749161,156.161743 
	C128.742676,156.338516 128.477142,156.465714 128.108002,156.455505 
	C128.166306,156.249435 128.328201,156.180801 128.749161,156.161743 
z"/>
<path fill="#CAE9FB" opacity="1.000000" stroke="none" 
	d="
M490.470032,177.023682 
	C490.002441,171.713425 490.002502,166.411911 489.999695,161.110413 
	C489.995605,153.383423 489.845764,153.187256 482.535645,151.346878 
	C480.052582,145.946518 486.583374,135.982605 473.993652,135.586273 
	C473.993652,132.879898 473.993652,130.436264 473.988159,127.552643 
	C486.401062,127.769791 498.833710,128.239990 511.230133,129.185242 
	C515.578613,129.516800 519.838135,131.015274 524.564575,132.362015 
	C524.192505,134.134445 523.538879,135.637360 522.568726,136.896408 
	C519.508118,140.868500 520.498169,143.472290 525.167053,145.185272 
	C526.761536,145.770309 528.233093,147.876358 528.849670,149.611267 
	C529.481079,151.387970 529.089661,153.566528 528.978821,155.559921 
	C528.801270,158.753845 529.254517,161.085770 533.356384,161.212860 
	C534.557861,161.250092 536.296387,162.942688 536.759399,164.243118 
	C538.114502,168.048523 538.950684,172.038681 539.990234,175.956436 
	C523.638916,176.315094 507.287659,176.673767 490.470032,177.023682 
z"/>
<path fill="#D2ECFB" opacity="1.000000" stroke="none" 
	d="
M540.425049,175.975967 
	C538.950684,172.038681 538.114502,168.048523 536.759399,164.243118 
	C536.296387,162.942688 534.557861,161.250092 533.356384,161.212860 
	C529.254517,161.085770 528.801270,158.753845 528.978821,155.559921 
	C529.089661,153.566528 529.481079,151.387970 528.849670,149.611267 
	C528.233093,147.876358 526.761536,145.770309 525.167053,145.185272 
	C520.498169,143.472290 519.508118,140.868500 522.568726,136.896408 
	C523.538879,135.637360 524.192505,134.134445 524.996704,132.368683 
	C536.325623,134.830231 547.774841,137.250977 558.931702,140.635315 
	C567.662842,143.283829 576.031738,147.126724 584.786316,150.706421 
	C583.566406,151.649597 582.134705,152.354813 580.673279,152.992157 
	C579.401184,153.546951 577.595764,153.655853 576.895447,154.603973 
	C574.473450,157.882980 577.861450,168.366104 581.453918,170.016739 
	C582.544067,170.517654 583.349426,171.795410 584.097717,172.850327 
	C585.629456,175.009567 587.034180,177.258896 588.646545,179.707031 
	C588.191895,179.950516 586.803711,180.693985 585.210083,181.713455 
	C570.289734,179.991470 555.574768,177.993484 540.425049,175.975967 
M544.410522,174.482437 
	C544.410522,174.482437 544.522522,174.415512 544.410522,174.482437 
z"/>
<path fill="#D2ECFB" opacity="1.000000" stroke="none" 
	d="
M571.992859,226.658234 
	C571.396545,226.555557 570.743408,226.136749 570.039062,225.405945 
	C570.637207,225.509979 571.286621,225.926041 571.992859,226.658234 
z"/>
<path fill="#D8EFFB" opacity="1.000000" stroke="none" 
	d="
M561.245117,103.266342 
	C563.873962,101.639809 566.662659,100.765602 568.845642,104.641205 
	C566.495300,104.499252 563.990601,104.023643 561.245117,103.266342 
z"/>
<path fill="#D8EFFB" opacity="1.000000" stroke="none" 
	d="
M544.993164,92.686615 
	C544.456665,93.125572 543.922974,93.230179 543.389221,93.334778 
	C543.718628,92.586746 544.048096,91.838715 544.704224,91.053558 
	C545.019226,91.461708 545.007568,91.906982 544.993164,92.686615 
z"/>
<path fill="#2985C8" opacity="1.000000" stroke="none" 
	d="
M61.960960,209.295685 
	C62.178902,209.200516 62.487827,209.343887 62.885315,209.735336 
	C62.973869,209.983414 62.571590,210.057053 62.367798,210.044724 
	C62.126656,209.866333 62.089302,209.700287 61.960960,209.295685 
z"/>
<path fill="#CEEAFB" opacity="1.000000" stroke="none" 
	d="
M584.045410,76.392410 
	C584.287964,76.789848 584.286255,77.185257 584.255981,77.578476 
	C584.255127,77.589531 583.948730,77.577049 583.784729,77.575546 
	C583.788879,77.180389 583.793030,76.785233 584.045410,76.392410 
z"/>
<path fill="#0361AE" opacity="1.000000" stroke="none" 
	d="
M86.221329,206.262054 
	C90.733437,205.308060 95.469330,204.631088 101.071037,203.942291 
	C114.627937,205.604889 127.319038,207.279282 139.785797,209.245712 
	C133.456192,211.458572 127.350937,213.379395 121.245689,215.300201 
	C121.299789,215.984360 121.353897,216.668518 121.408005,217.352661 
	C132.982254,218.838303 144.556488,220.323944 156.350891,221.851227 
	C156.571030,221.892868 157.016571,221.940781 156.803467,222.216370 
	C155.383224,223.311707 154.176086,224.131454 152.968933,224.951202 
	C139.145050,223.161682 125.321159,221.372162 111.240341,219.287445 
	C111.733040,217.878983 112.482674,216.765747 113.232300,215.652512 
	C112.144974,215.090973 111.110641,214.365311 109.961777,213.994354 
	C102.136368,211.467529 94.286850,209.015366 86.221329,206.262054 
z"/>
<path fill="#FEFEFF" opacity="1.000000" stroke="none" 
	d="
M362.062531,119.475677 
	C362.179657,119.142914 362.609375,119.117043 362.824585,119.103073 
	C368.144897,117.725128 373.262970,116.407562 378.352631,114.988129 
	C391.501678,111.321053 404.635956,107.601112 417.781281,103.920654 
	C420.942719,103.035507 424.124176,102.221756 427.658508,101.229050 
	C437.204681,100.015663 446.373993,98.792107 455.576752,97.922028 
	C466.267609,96.911263 476.987762,96.210464 487.695221,95.375137 
	C487.827026,95.802414 487.958862,96.229683 488.090668,96.656960 
	C478.087524,102.426155 468.045502,108.129326 458.093109,113.984810 
	C449.689606,118.928993 441.390076,124.049850 432.582336,129.492325 
	C430.454468,130.364075 428.788788,130.835983 426.719086,131.257843 
	C421.759766,132.036514 417.122894,132.558960 412.663208,133.746582 
	C392.479309,139.121552 372.306488,144.547791 352.219666,150.271332 
	C346.890076,151.789932 341.880127,154.430267 336.301331,156.602325 
	C333.593018,156.711823 331.306854,156.774567 329.020691,156.837326 
	C323.018768,155.909943 317.038422,154.791092 311.008667,154.110260 
	C305.242279,153.459137 299.419678,153.319855 293.632751,152.826477 
	C292.259613,152.709412 290.930481,152.076614 288.613678,151.397461 
	C295.201691,148.201538 300.905518,145.434540 307.145660,142.377747 
	C308.141113,141.786423 308.600220,141.484879 309.381775,141.140808 
	C310.127716,141.006866 310.551239,140.915466 311.279755,140.836212 
	C312.050751,140.516312 312.516693,140.184280 312.982635,139.852234 
	C317.420837,137.927643 321.859039,136.003052 326.642151,133.970367 
	C329.166931,133.070755 331.346771,132.279266 334.061829,131.208466 
	C336.726929,129.939682 338.856781,128.950241 340.986603,127.960793 
	C344.837982,126.504662 348.689331,125.048523 352.787781,123.332352 
	C356.005066,121.984352 358.975220,120.896400 362.062531,119.475677 
z"/>
<path fill="#B9E3FA" opacity="1.000000" stroke="none" 
	d="
M445.953613,176.812683 
	C437.026520,175.179184 428.196259,173.044785 419.321716,171.113861 
	C408.199646,168.693909 397.041229,166.440887 384.382355,163.799469 
	C388.022766,161.968506 390.398865,160.786530 392.763458,159.581863 
	C403.591248,154.065613 414.415771,148.542984 425.966614,142.976044 
	C428.801758,141.988846 430.911774,141.048279 433.021820,140.107712 
	C432.198090,141.440948 431.374359,142.774185 430.352051,144.428802 
	C431.015411,144.568115 431.657349,144.927216 432.109100,144.763046 
	C436.529633,143.156525 437.976746,145.439346 437.971161,149.316040 
	C437.962952,155.018173 439.632416,159.350662 444.113403,163.636108 
	C446.572754,165.988144 445.507050,172.026108 445.953613,176.812683 
z"/>
<path fill="#8CC9EF" opacity="1.000000" stroke="none" 
	d="
M433.340881,139.936966 
	C430.911774,141.048279 428.801758,141.988846 426.336914,142.946899 
	C424.683044,140.865616 423.384003,138.766876 422.196594,136.008911 
	C423.913177,134.002441 425.518158,132.655167 427.123138,131.307907 
	C428.788788,130.835983 430.454468,130.364075 432.481262,129.814667 
	C440.505920,129.130051 448.169434,128.522888 455.832977,127.915733 
	C455.970459,128.242203 456.107971,128.568680 456.245453,128.895157 
	C448.716949,132.518845 441.188477,136.142532 433.340881,139.936966 
z"/>
<path fill="#6FC9F3" opacity="1.000000" stroke="none" 
	d="
M329.021240,157.230270 
	C331.306854,156.774567 333.593018,156.711823 336.742493,156.734131 
	C349.488220,158.654068 361.370636,160.488907 373.027161,162.571747 
	C371.626007,163.539505 370.450714,164.259277 368.829987,165.251862 
	C370.607269,166.160461 371.876526,166.809341 373.145813,167.458237 
	C367.770508,170.449509 362.420105,173.486893 357.007507,176.409058 
	C354.878357,177.558563 352.610199,178.450638 350.173492,179.725571 
	C341.507111,183.562073 333.072601,187.132950 324.317810,190.854919 
	C318.579071,193.011215 313.160553,195.016434 307.156219,196.758362 
	C305.691254,196.313248 304.812134,196.131454 304.165466,195.691254 
	C307.938660,193.654007 311.479462,191.875137 315.399658,190.074020 
	C332.762299,183.433578 349.070984,175.425644 365.224701,167.098328 
	C365.142944,166.483536 365.061188,165.868729 364.979431,165.253922 
	C353.005157,163.492584 341.030884,161.731247 329.056610,159.969894 
	C329.045013,159.187668 329.033386,158.405441 329.021240,157.230270 
z"/>
<path fill="#2985C8" opacity="1.000000" stroke="none" 
	d="
M373.445251,167.416229 
	C371.876526,166.809341 370.607269,166.160461 368.829987,165.251862 
	C370.450714,164.259277 371.626007,163.539505 373.297913,162.543411 
	C374.157379,162.243317 374.520203,162.219528 374.883057,162.195740 
	C376.488708,162.706940 378.094360,163.218124 380.498566,163.983551 
	C379.080261,165.237823 378.046417,166.152084 376.853577,167.371399 
	C375.711304,167.575714 374.727966,167.474976 373.445251,167.416229 
z"/>
<path fill="#B1DFF8" opacity="1.000000" stroke="none" 
	d="
M375.086517,161.897003 
	C374.520203,162.219528 374.157379,162.243317 373.523773,162.295441 
	C361.370636,160.488907 349.488220,158.654068 337.164642,156.687393 
	C341.880127,154.430267 346.890076,151.789932 352.219666,150.271332 
	C372.306488,144.547791 392.479309,139.121552 412.663208,133.746582 
	C417.122894,132.558960 421.759766,132.036514 426.719086,131.257843 
	C425.518158,132.655167 423.913177,134.002441 422.157043,135.640381 
	C416.195587,139.027161 410.347260,142.054306 404.583527,145.234772 
	C394.790955,150.638397 385.051666,156.138641 375.086517,161.897003 
z"/>
<path fill="#C2E6F9" opacity="1.000000" stroke="none" 
	d="
M452.786530,182.922699 
	C452.763092,183.051483 452.464478,183.179474 452.063782,183.129059 
	C452.144928,182.941055 452.328156,182.931473 452.786530,182.922699 
z"/>
<path fill="#5AA1D8" opacity="1.000000" stroke="none" 
	d="
M303.933014,195.949646 
	C304.812134,196.131454 305.691254,196.313248 306.771729,196.768250 
	C304.860443,197.930939 302.747803,198.820435 300.317688,199.872437 
	C293.825562,202.153336 287.650940,204.271713 281.211487,206.636627 
	C280.497986,206.895309 280.049255,206.907455 279.090515,206.671310 
	C278.029846,206.245102 277.479156,206.067200 277.060242,205.659439 
	C277.512604,205.006927 277.833221,204.584259 278.545288,204.138947 
	C283.033234,202.488434 287.129730,200.860519 291.573273,199.203812 
	C292.977722,198.822495 294.035095,198.469971 295.413574,198.097107 
	C296.161530,198.035019 296.588409,197.993286 297.253754,197.966705 
	C297.492249,197.981873 297.965118,197.912140 298.191925,197.866730 
	C298.715424,197.695068 298.934814,197.487213 299.432007,197.127197 
	C301.169098,196.687653 302.551056,196.318649 303.933014,195.949646 
z"/>
<path fill="#2985C8" opacity="1.000000" stroke="none" 
	d="
M250.063446,215.683716 
	C244.457825,216.972839 239.148132,218.026962 233.434418,219.151672 
	C232.219345,219.465668 231.408279,219.709091 229.921295,220.017151 
	C228.527191,220.198914 227.809036,220.316040 227.090881,220.433167 
	C220.180847,221.443970 213.278824,222.514740 206.357132,223.438110 
	C203.287537,223.847580 200.178192,223.959076 196.588608,223.842804 
	C196.061234,222.986221 196.032150,222.492645 196.404312,221.971619 
	C197.876175,221.889511 198.946777,221.834869 200.235260,221.736206 
	C200.725906,221.539200 200.913055,221.314758 201.353516,221.010956 
	C202.142502,220.959793 202.592560,220.916534 203.464554,220.892853 
	C205.570038,220.836899 207.253601,220.761368 209.229202,220.748413 
	C210.016327,220.549255 210.511429,220.287552 211.435745,220.018524 
	C213.578613,219.930191 215.292267,219.849182 217.253143,219.804749 
	C217.500381,219.841293 217.997147,219.785965 218.376770,219.793274 
	C221.110992,219.210907 223.467682,218.629318 225.819763,218.029709 
	C229.251312,217.154907 232.679565,216.267166 236.541122,215.307526 
	C242.041397,214.211456 247.109787,213.192780 252.568939,212.161224 
	C254.970718,211.773911 256.981720,211.399460 259.002655,211.344238 
	C259.014618,212.088699 259.016663,212.513947 259.018707,212.939178 
	C256.132263,213.775696 253.245804,214.612228 250.063446,215.683716 
z"/>
<path fill="#0D74BA" opacity="1.000000" stroke="none" 
	d="
M196.003052,221.999084 
	C196.032150,222.492645 196.061234,222.986221 196.144363,223.849274 
	C195.358719,224.464691 194.519043,224.710602 193.084030,224.694580 
	C190.667297,224.653091 188.845917,224.873566 187.024521,225.094055 
	C185.368378,225.140121 183.712219,225.186203 181.650543,225.257080 
	C172.134033,225.186646 163.023041,225.091385 153.440491,224.973663 
	C154.176086,224.131454 155.383224,223.311707 157.200851,222.203796 
	C158.872803,221.909760 159.934265,221.903854 161.213409,222.181244 
	C162.953781,222.319733 164.476501,222.174942 166.452942,222.026825 
	C173.604691,222.010056 180.302704,221.996613 187.427795,222.002686 
	C189.565063,222.028107 191.275238,222.034012 193.081741,222.197052 
	C193.454330,222.243469 193.730591,222.132782 194.339432,222.011917 
	C195.115707,222.000854 195.559372,221.999969 196.003052,221.999084 
z"/>
<path fill="#2985C8" opacity="1.000000" stroke="none" 
	d="
M187.451355,225.111694 
	C188.845917,224.873566 190.667297,224.653091 192.745407,224.692261 
	C191.294144,225.011032 189.586166,225.070190 187.451355,225.111694 
z"/>
<path fill="#78B7E4" opacity="1.000000" stroke="none" 
	d="
M227.147781,220.721497 
	C227.809036,220.316040 228.527191,220.198914 229.610840,220.094238 
	C229.052444,220.407715 228.128555,220.708771 227.147781,220.721497 
z"/>
<path fill="#4F99D4" opacity="1.000000" stroke="none" 
	d="
M259.398254,212.956863 
	C259.016663,212.513947 259.014618,212.088699 259.245239,211.072098 
	C261.990295,209.697067 264.502686,208.913406 267.405457,208.094574 
	C270.840057,207.335999 273.884277,206.612640 276.928497,205.889282 
	C277.479156,206.067200 278.029846,206.245102 278.753845,206.654831 
	C274.441742,208.396622 269.956268,209.906586 265.212769,211.660980 
	C263.229065,212.261810 261.503418,212.618179 259.398254,212.956863 
z"/>
<path fill="#8CC9EF" opacity="1.000000" stroke="none" 
	d="
M259.467224,214.449677 
	C259.522705,214.416855 259.411743,214.482498 259.467224,214.449677 
z"/>
<path fill="#6CACDF" opacity="1.000000" stroke="none" 
	d="
M161.042938,185.014816 
	C169.754929,181.936401 178.466904,178.857986 187.578552,176.184143 
	C189.042023,181.300461 190.105850,186.012192 191.311646,191.352753 
	C190.320877,190.928391 188.844223,190.295929 186.638046,189.350998 
	C186.802155,191.096817 186.951019,192.680573 186.833893,194.482376 
	C179.704254,197.067169 172.840607,199.433945 165.773590,201.483963 
	C165.046295,197.060272 164.391190,192.964096 164.052780,188.841904 
	C163.879013,186.725311 163.973801,184.791183 161.042938,185.014816 
M180.825516,182.247482 
	C180.880768,182.413483 180.936020,182.579498 180.991272,182.745499 
	C181.045212,182.578522 181.099152,182.411530 180.825516,182.247482 
M184.403656,178.482437 
	C184.403656,178.482437 184.522461,178.411026 184.403656,178.482437 
z"/>
<path fill="#5AA1D8" opacity="1.000000" stroke="none" 
	d="
M160.661789,185.039856 
	C163.973801,184.791183 163.879013,186.725311 164.052780,188.841904 
	C164.391190,192.964096 165.046295,197.060272 165.418457,201.618103 
	C159.222458,204.350052 153.178253,206.631104 146.731812,208.951294 
	C144.219513,208.658630 142.109451,208.326828 140.000305,207.595322 
	C140.306488,203.294510 140.770920,199.392731 140.754013,195.493027 
	C140.751312,194.872299 138.585800,194.260925 137.420197,193.645233 
	C136.072083,197.210846 134.369186,194.059418 132.823700,193.888016 
	C139.575684,191.911774 146.347122,189.998627 153.069443,187.926193 
	C155.533066,187.166687 157.880310,186.029678 160.661789,185.039856 
M160.118607,187.276306 
	C159.575684,187.468185 159.032761,187.660065 158.489822,187.851944 
	C158.617096,188.129822 158.744370,188.407700 158.871658,188.685577 
	C159.430435,188.360489 159.989212,188.035416 160.118607,187.276306 
z"/>
<path fill="#78B7E4" opacity="1.000000" stroke="none" 
	d="
M187.099884,194.264343 
	C186.951019,192.680573 186.802155,191.096817 186.638046,189.350998 
	C188.844223,190.295929 190.320877,190.928391 191.311646,191.352753 
	C190.105850,186.012192 189.042023,181.300461 187.964600,176.117172 
	C193.995483,173.400528 200.039963,171.155441 206.770203,169.137085 
	C208.206268,172.683136 208.956573,176.002441 209.725037,179.402084 
	C210.546539,179.461807 211.542267,179.534210 212.917114,179.634155 
	C211.402145,180.967209 210.287933,181.947617 208.932205,183.140533 
	C211.527756,183.140533 213.290314,183.140533 214.815262,183.390503 
	C205.418396,187.181763 196.259140,190.723053 187.099884,194.264343 
z"/>
<path fill="#4F99D4" opacity="1.000000" stroke="none" 
	d="
M132.435791,193.909363 
	C134.369186,194.059418 136.072083,197.210846 137.420197,193.645233 
	C138.585800,194.260925 140.751312,194.872299 140.754013,195.493027 
	C140.770920,199.392731 140.306488,203.294510 140.000610,207.835022 
	C139.999985,208.474457 140.010132,208.953659 140.010132,208.953659 
	C127.319038,207.279282 114.627937,205.604889 101.539413,203.911407 
	C101.101410,203.645065 101.060822,203.397812 101.026924,202.774338 
	C111.371704,199.575668 121.709801,196.753204 132.435791,193.909363 
M132.815369,196.738098 
	C132.973572,196.623703 133.131760,196.509308 133.289963,196.394913 
	C133.069626,196.417984 132.849289,196.441055 132.815369,196.738098 
z"/>
<path fill="#84C1EB" opacity="1.000000" stroke="none" 
	d="
M215.052872,183.140533 
	C213.290314,183.140533 211.527756,183.140533 208.932205,183.140533 
	C210.287933,181.947617 211.402145,180.967209 212.917114,179.634155 
	C211.542267,179.534210 210.546539,179.461807 209.725037,179.402084 
	C208.956573,176.002441 208.206268,172.683136 207.151031,169.109024 
	C212.639679,166.576141 218.433273,164.298050 224.765503,162.220169 
	C225.871918,161.972382 226.439667,161.524384 227.007431,161.076355 
	C227.790878,160.736618 228.574326,160.396881 229.672424,160.413666 
	C229.037170,164.146347 228.087311,167.522537 226.721588,172.376801 
	C223.979019,173.947876 223.890244,175.169342 227.659332,178.070068 
	C223.234009,179.841202 219.143433,181.490860 215.052872,183.140533 
z"/>
<path fill="#96D0F3" opacity="1.000000" stroke="none" 
	d="
M269.034760,153.753555 
	C270.540100,154.670380 272.045410,155.587219 273.504944,156.988754 
	C264.307526,161.644058 255.155899,165.814636 245.841553,169.621277 
	C245.175980,165.305298 243.008301,161.262955 246.503174,157.275543 
	C245.564148,157.171982 244.781769,157.085693 243.999695,156.999695 
	C244.000000,157.000000 244.000610,157.000610 243.973160,156.620300 
	C243.922821,155.986832 243.899933,155.733673 243.877060,155.480530 
	C244.786652,154.726715 245.696259,153.972900 247.196793,153.251221 
	C249.524567,153.184952 251.261429,153.086563 253.464615,152.974884 
	C258.965546,153.225601 264.000153,153.489578 269.034760,153.753555 
z"/>
<path fill="#8CC9EF" opacity="1.000000" stroke="none" 
	d="
M243.999390,156.999390 
	C244.781769,157.085693 245.564148,157.171982 246.503174,157.275543 
	C243.008301,161.262955 245.175980,165.305298 245.487717,169.698868 
	C239.529099,172.743134 233.761597,175.345871 227.994095,177.948608 
	C223.890244,175.169342 223.979019,173.947876 226.721588,172.376801 
	C228.087311,167.522537 229.037170,164.146347 229.993500,160.393494 
	C234.358795,158.557281 238.717667,157.097763 243.476791,155.559387 
	C243.899933,155.733673 243.922821,155.986832 243.645889,156.624420 
	C242.686600,157.314804 242.027145,157.620804 241.367676,157.926804 
	C241.565125,158.218201 241.762558,158.509613 241.960007,158.801010 
	C242.639801,158.200470 243.319595,157.599930 243.999390,156.999390 
M241.587631,160.518066 
	C241.587631,160.518066 241.477600,160.583405 241.587631,160.518066 
z"/>
<path fill="#4F99D4" opacity="1.000000" stroke="none" 
	d="
M269.497437,153.788574 
	C264.000153,153.489578 258.965546,153.225601 253.233765,152.732605 
	C251.358688,151.967697 250.180817,151.431839 249.002945,150.895981 
	C251.385742,150.653778 253.768539,150.411575 256.863647,150.398438 
	C260.066620,150.693100 262.557343,150.758682 265.048035,150.824249 
	C271.618988,151.220261 278.189972,151.616272 284.760925,152.012283 
	C284.789520,152.563965 284.818115,153.115646 284.846680,153.667328 
	C279.884491,153.719406 274.922333,153.771500 269.497437,153.788574 
z"/>
<path fill="#6CACDF" opacity="1.000000" stroke="none" 
	d="
M172.364136,153.902100 
	C169.192429,153.567825 166.477036,153.295486 163.316559,152.973328 
	C163.162445,152.765503 163.448593,152.479034 163.745102,152.467865 
	C181.255768,151.808258 198.767288,151.171356 216.323654,151.723480 
	C201.822586,152.470337 187.321533,153.217178 172.364136,153.902100 
z"/>
<path fill="#8CC9EF" opacity="1.000000" stroke="none" 
	d="
M248.689819,150.628876 
	C250.180817,151.431839 251.358688,151.967697 252.767426,152.745865 
	C251.261429,153.086563 249.524567,153.184952 247.499817,153.178741 
	C242.481903,152.736176 237.755371,152.331024 233.020569,152.085983 
	C230.280319,151.944153 227.526703,152.060226 224.779114,152.060226 
	C224.778656,151.494080 224.778198,150.927917 224.777740,150.361771 
	C232.644073,150.361771 240.510391,150.361771 248.689819,150.628876 
z"/>
<path fill="#8CC9EF" opacity="1.000000" stroke="none" 
	d="
M265.029907,150.444611 
	C262.557343,150.758682 260.066620,150.693100 257.253418,150.395020 
	C259.375610,149.117065 261.820312,148.071609 264.633362,147.015076 
	C265.005005,148.024307 265.008392,149.044632 265.029907,150.444611 
z"/>
<path fill="#8CC9EF" opacity="1.000000" stroke="none" 
	d="
M226.708466,161.062317 
	C226.439667,161.524384 225.871918,161.972382 225.141693,162.183807 
	C225.455994,161.647568 225.932739,161.347916 226.708466,161.062317 
z"/>
<path fill="#FFFFFF" opacity="1.000000" stroke="none" 
	d="
M168.011078,150.755417 
	C167.901291,150.589539 167.955139,150.422165 168.009003,150.254791 
	C168.064240,150.421173 168.119461,150.587540 168.011078,150.755417 
z"/>
<path fill="#4F99D4" opacity="1.000000" stroke="none" 
	d="
M138.385529,157.108673 
	C138.320663,156.977478 138.699371,156.887375 138.795090,156.910706 
	C138.837097,157.170868 138.690292,157.272812 138.385529,157.108673 
z"/>
<path fill="#4F99D4" opacity="1.000000" stroke="none" 
	d="
M128.243927,158.598114 
	C128.190674,158.250641 128.437805,158.096176 128.981598,158.086090 
	C129.073608,158.448792 128.828964,158.635681 128.243927,158.598114 
z"/>
<path fill="#FBFDFE" opacity="1.000000" stroke="none" 
	d="
M227.659332,178.070068 
	C233.761597,175.345871 239.529099,172.743134 245.650452,170.062805 
	C255.155899,165.814636 264.307526,161.644058 273.740723,157.280701 
	C287.068665,152.303223 300.046326,156.349930 313.033112,157.463852 
	C317.239929,157.824707 321.401123,158.717941 325.791138,159.684235 
	C325.999054,160.000824 325.999176,160.018967 325.701080,160.035339 
	C324.921448,160.362732 324.439911,160.673752 323.578857,160.988327 
	C319.088318,162.854416 314.977264,164.716949 310.464417,166.663879 
	C307.420044,167.504410 304.702911,168.068527 302.151398,169.059174 
	C297.694458,170.789581 293.339355,172.782349 288.546234,174.739136 
	C282.058075,177.048035 275.965240,179.282959 269.484985,181.609421 
	C264.613800,183.356979 260.130035,185.012985 255.266846,186.711090 
	C250.204910,188.344742 245.522385,189.936264 240.440063,191.600220 
	C235.026077,193.137283 230.011902,194.601898 224.618225,196.125336 
	C218.162552,197.841156 212.086395,199.498169 205.690796,201.137482 
	C204.572662,201.397842 203.773956,201.675888 202.631866,201.918945 
	C201.203201,202.207474 200.117920,202.530991 198.608551,202.862198 
	C191.161758,204.170303 184.139053,205.470718 176.656006,206.781555 
	C168.790222,207.521210 161.384781,208.250427 153.551804,208.930023 
	C151.127533,208.890976 149.130783,208.901566 147.134048,208.912170 
	C153.178253,206.631104 159.222458,204.350052 165.621796,201.934845 
	C172.840607,199.433945 179.704254,197.067169 186.833893,194.482376 
	C196.259140,190.723053 205.418396,187.181763 214.815262,183.390503 
	C219.143433,181.490860 223.234009,179.841202 227.659332,178.070068 
z"/>
<path fill="#A6DCF8" opacity="1.000000" stroke="none" 
	d="
M310.866241,166.579498 
	C314.977264,164.716949 319.088318,162.854416 323.880432,160.972382 
	C325.040710,160.641586 325.519928,160.330276 325.999176,160.018967 
	C325.999176,160.018967 325.999054,160.000824 326.010620,160.003876 
	C326.779999,160.001083 327.537811,159.995255 328.676086,159.979645 
	C341.030884,161.731247 353.005157,163.492584 364.979431,165.253922 
	C365.061188,165.868729 365.142944,166.483536 365.224701,167.098328 
	C349.070984,175.425644 332.762299,183.433578 315.338806,189.701691 
	C313.934753,186.980988 312.459778,184.682465 312.113190,182.224792 
	C311.383881,177.053940 311.246521,171.799591 310.866241,166.579498 
z"/>
<path fill="#A6DCF8" opacity="1.000000" stroke="none" 
	d="
M309.059357,141.183350 
	C308.600220,141.484879 308.141113,141.786423 307.404236,142.141296 
	C307.013031,140.367264 306.899536,138.539856 306.696564,135.271393 
	C309.179840,137.784134 313.087372,133.979004 312.989075,139.496033 
	C312.516693,140.184280 312.050751,140.516312 311.234131,140.551147 
	C310.275421,140.563736 309.667389,140.873550 309.059357,141.183350 
z"/>
<path fill="#B9E3FA" opacity="1.000000" stroke="none" 
	d="
M340.711823,127.681953 
	C338.856781,128.950241 336.726929,129.939682 334.289001,130.953247 
	C332.850647,130.417206 331.720398,129.857025 330.590149,129.296860 
	C330.548035,128.885635 330.505920,128.474396 330.463776,128.063156 
	C333.788208,127.843147 337.112610,127.623131 340.711823,127.681953 
z"/>
<path fill="#CAE9FB" opacity="1.000000" stroke="none" 
	d="
M544.466553,174.448975 
	C544.522522,174.415512 544.410522,174.482437 544.466553,174.448975 
z"/>
<path fill="#2985C8" opacity="1.000000" stroke="none" 
	d="
M146.731812,208.951294 
	C149.130783,208.901566 151.127533,208.890976 153.908173,208.991455 
	C158.168396,211.105713 161.827438,213.109940 159.365479,218.076675 
	C158.657669,219.504593 157.228928,220.575165 156.130737,221.809586 
	C144.556488,220.323944 132.982254,218.838303 121.408005,217.352661 
	C121.353897,216.668518 121.299789,215.984360 121.245689,215.300201 
	C127.350937,213.379395 133.456192,211.458572 139.785797,209.245712 
	C140.010132,208.953659 139.999985,208.474457 139.999695,208.234741 
	C142.109451,208.326828 144.219513,208.658630 146.731812,208.951294 
z"/>
<path fill="#4F99D4" opacity="1.000000" stroke="none" 
	d="
M156.350891,221.851227 
	C157.228928,220.575165 158.657669,219.504593 159.365479,218.076675 
	C161.827438,213.109940 158.168396,211.105713 154.335693,209.041077 
	C161.384781,208.250427 168.790222,207.521210 176.486725,207.057465 
	C176.136047,207.744202 175.494308,208.165482 174.773438,208.638687 
	C180.312256,210.224762 182.868301,213.437485 182.808884,216.929596 
	C184.743332,219.261734 185.872025,220.622467 187.000702,221.983185 
	C180.302704,221.996613 173.604691,222.010056 166.227570,221.756195 
	C164.030884,221.625244 162.513306,221.761597 160.995728,221.897949 
	C159.934265,221.903854 158.872803,221.909760 157.413956,221.928223 
	C157.016571,221.940781 156.571030,221.892868 156.350891,221.851227 
z"/>
<path fill="#9FD8F6" opacity="1.000000" stroke="none" 
	d="
M309.381775,141.140808 
	C309.667389,140.873550 310.275421,140.563736 310.929077,140.539001 
	C310.551239,140.915466 310.127716,141.006866 309.381775,141.140808 
z"/>
<path fill="#9FD8F6" opacity="1.000000" stroke="none" 
	d="
M310.464417,166.663879 
	C311.246521,171.799591 311.383881,177.053940 312.113190,182.224792 
	C312.459778,184.682465 313.934753,186.980988 314.959412,189.723938 
	C311.479462,191.875137 307.938660,193.654007 304.165466,195.691254 
	C302.551056,196.318649 301.169098,196.687653 299.285980,196.801910 
	C297.615509,195.828964 296.381042,195.196625 295.292908,194.371368 
	C293.841003,193.270279 292.003998,192.278122 291.224609,190.776184 
	C289.814240,188.058243 289.440491,184.784225 287.938782,182.136642 
	C286.229797,179.123642 286.185120,176.837723 288.941589,174.665161 
	C293.339355,172.782349 297.694458,170.789581 302.151398,169.059174 
	C304.702911,168.068527 307.420044,167.504410 310.464417,166.663879 
z"/>
<path fill="#96D0F3" opacity="1.000000" stroke="none" 
	d="
M288.546234,174.739136 
	C286.185120,176.837723 286.229797,179.123642 287.938782,182.136642 
	C289.440491,184.784225 289.814240,188.058243 291.224609,190.776184 
	C292.003998,192.278122 293.841003,193.270279 295.292908,194.371368 
	C296.381042,195.196625 297.615509,195.828964 298.930847,196.872467 
	C298.934814,197.487213 298.715424,197.695068 298.104095,197.714584 
	C297.531403,197.722412 297.273346,197.836990 297.015259,197.951553 
	C296.588409,197.993286 296.161530,198.035019 295.180267,197.810730 
	C293.262543,197.570526 291.899261,197.596359 290.535950,197.622192 
	C290.766052,198.158981 290.996155,198.695786 291.226227,199.232605 
	C287.129730,200.860519 283.033234,202.488434 278.317200,203.925598 
	C277.185944,201.737183 277.270111,199.211288 276.053284,197.838669 
	C272.054840,193.328201 272.187714,188.598373 274.129059,184.428207 
	C272.419800,183.259552 271.146118,182.388702 269.872437,181.517868 
	C275.965240,179.282959 282.058075,177.048035 288.546234,174.739136 
z"/>
<path fill="#8CC9EF" opacity="1.000000" stroke="none" 
	d="
M269.484985,181.609421 
	C271.146118,182.388702 272.419800,183.259552 274.129059,184.428207 
	C272.187714,188.598373 272.054840,193.328201 276.053284,197.838669 
	C277.270111,199.211288 277.185944,201.737183 277.925720,203.948227 
	C277.833221,204.584259 277.512604,205.006927 277.060242,205.659439 
	C273.884277,206.612640 270.840057,207.335999 267.438843,207.757721 
	C267.689697,206.764832 268.297546,206.073593 268.753845,205.554703 
	C267.609711,204.889236 265.797211,204.463715 265.207642,203.375595 
	C263.353638,199.953918 262.161346,196.173141 260.300415,192.756012 
	C259.390961,191.086121 257.568024,189.913742 255.730301,188.091568 
	C255.740479,188.263626 255.693359,187.466293 255.646255,186.668976 
	C260.130035,185.012985 264.613800,183.356979 269.484985,181.609421 
z"/>
<path fill="#9FD8F6" opacity="1.000000" stroke="none" 
	d="
M291.573273,199.203796 
	C290.996155,198.695786 290.766052,198.158981 290.535950,197.622192 
	C291.899261,197.596359 293.262543,197.570526 294.859192,197.831085 
	C294.035095,198.469971 292.977722,198.822495 291.573273,199.203796 
z"/>
<path fill="#9FD8F6" opacity="1.000000" stroke="none" 
	d="
M297.253754,197.966721 
	C297.273346,197.836990 297.531403,197.722412 297.877289,197.759995 
	C297.965118,197.912140 297.492249,197.981873 297.253754,197.966721 
z"/>
<path fill="#6CACDF" opacity="1.000000" stroke="none" 
	d="
M206.010223,201.155182 
	C212.086395,199.498169 218.162552,197.841156 224.692108,196.481842 
	C226.387054,197.680634 228.160843,198.312042 228.777802,199.529617 
	C231.408051,204.720261 233.696213,210.084229 236.109222,215.384949 
	C232.679565,216.267166 229.251312,217.154907 225.819763,218.029709 
	C223.467682,218.629318 221.110992,219.210907 218.278168,219.665100 
	C217.476746,219.346252 217.212067,219.425781 217.005920,219.768188 
	C215.292267,219.849182 213.578613,219.930191 211.282181,219.792938 
	C210.111984,219.945084 209.524582,220.315475 208.937164,220.685852 
	C207.253601,220.761368 205.570038,220.836899 203.458939,220.522461 
	C204.245117,214.931091 201.260971,208.620529 196.152145,207.118179 
	C201.856491,207.710815 198.825333,204.595306 199.032639,202.854492 
	C200.117920,202.530991 201.203201,202.207474 202.818207,202.171844 
	C204.558502,202.684311 206.609818,204.624649 206.010223,201.155182 
M201.483200,203.591278 
	C201.483200,203.591278 201.415253,203.479401 201.483200,203.591278 
M221.483337,198.589432 
	C221.483337,198.589432 221.415649,198.477219 221.483337,198.589432 
z"/>
<path fill="#84C1EB" opacity="1.000000" stroke="none" 
	d="
M255.266846,186.711090 
	C255.693359,187.466293 255.740479,188.263626 255.730301,188.091568 
	C257.568024,189.913742 259.390961,191.086121 260.300415,192.756012 
	C262.161346,196.173141 263.353638,199.953918 265.207642,203.375595 
	C265.797211,204.463715 267.609711,204.889236 268.753845,205.554703 
	C268.297546,206.073593 267.689697,206.764832 267.048462,207.792908 
	C264.502686,208.913406 261.990295,209.697067 259.235291,210.752869 
	C256.981720,211.399460 254.970718,211.773911 252.231873,211.983887 
	C248.753616,210.749817 247.180115,208.971268 246.303818,205.927170 
	C244.888504,201.010498 242.701157,196.316086 240.839859,191.527802 
	C245.522385,189.936264 250.204910,188.344742 255.266846,186.711090 
z"/>
<path fill="#5AA1D8" opacity="1.000000" stroke="none" 
	d="
M198.608551,202.862183 
	C198.825333,204.595306 201.856491,207.710815 196.152145,207.118179 
	C201.260971,208.620529 204.245117,214.931091 203.037018,220.502899 
	C202.592560,220.916534 202.142502,220.959793 201.149292,221.084320 
	C200.346222,221.309494 200.149963,221.514374 200.017380,221.780212 
	C198.946777,221.834869 197.876175,221.889511 196.404312,221.971619 
	C195.559372,221.999969 195.115707,222.000854 194.083710,221.996063 
	C193.325424,222.006897 193.155426,222.023407 192.985413,222.039932 
	C191.275238,222.034012 189.565063,222.028107 187.427795,222.002686 
	C185.872025,220.622467 184.743332,219.261734 182.808884,216.929596 
	C182.868301,213.437485 180.312256,210.224762 174.773438,208.638687 
	C175.494308,208.165482 176.136047,207.744202 176.947067,207.047028 
	C184.139053,205.470718 191.161758,204.170303 198.608551,202.862183 
z"/>
<path fill="#78B7E4" opacity="1.000000" stroke="none" 
	d="
M240.440063,191.600220 
	C242.701157,196.316086 244.888504,201.010498 246.303818,205.927170 
	C247.180115,208.971268 248.753616,210.749817 251.841095,211.996750 
	C247.109787,213.192780 242.041397,214.211456 236.541122,215.307526 
	C233.696213,210.084229 231.408051,204.720261 228.777802,199.529617 
	C228.160843,198.312042 226.387054,197.680634 225.071594,196.423035 
	C230.011902,194.601898 235.026077,193.137283 240.440063,191.600220 
z"/>
<path fill="#5AA1D8" opacity="1.000000" stroke="none" 
	d="
M209.229202,220.748413 
	C209.524582,220.315475 210.111984,219.945084 210.852966,219.800278 
	C210.511429,220.287552 210.016327,220.549255 209.229202,220.748413 
z"/>
<path fill="#4F99D4" opacity="1.000000" stroke="none" 
	d="
M200.235260,221.736206 
	C200.149963,221.514374 200.346222,221.309494 200.810379,221.092224 
	C200.913055,221.314758 200.725906,221.539200 200.235260,221.736206 
z"/>
<path fill="#5AA1D8" opacity="1.000000" stroke="none" 
	d="
M217.253143,219.804749 
	C217.212067,219.425781 217.476746,219.346252 217.898544,219.657791 
	C217.997147,219.785965 217.500381,219.841293 217.253143,219.804749 
z"/>
<path fill="#2985C8" opacity="1.000000" stroke="none" 
	d="
M161.213409,222.181244 
	C162.513306,221.761597 164.030884,221.625244 165.773834,221.759521 
	C164.476501,222.174942 162.953781,222.319733 161.213409,222.181244 
z"/>
<path fill="#2985C8" opacity="1.000000" stroke="none" 
	d="
M193.081741,222.197052 
	C193.155426,222.023407 193.325424,222.006897 193.751129,222.006241 
	C193.730591,222.132782 193.454330,222.243469 193.081741,222.197052 
z"/>
<path fill="#78B7E4" opacity="1.000000" stroke="none" 
	d="
M180.989304,182.246017 
	C181.099152,182.411530 181.045212,182.578522 180.991272,182.745499 
	C180.936020,182.579498 180.880768,182.413483 180.989304,182.246017 
z"/>
<path fill="#78B7E4" opacity="1.000000" stroke="none" 
	d="
M184.463058,178.446732 
	C184.522461,178.411026 184.403656,178.482437 184.463058,178.446732 
z"/>
<path fill="#6CACDF" opacity="1.000000" stroke="none" 
	d="
M160.333298,187.493317 
	C159.989212,188.035416 159.430435,188.360489 158.871658,188.685577 
	C158.744370,188.407700 158.617096,188.129822 158.489822,187.851959 
	C159.032761,187.660065 159.575684,187.468185 160.333298,187.493317 
z"/>
<path fill="#5AA1D8" opacity="1.000000" stroke="none" 
	d="
M132.722168,196.601105 
	C132.849289,196.441055 133.069626,196.417984 133.289963,196.394913 
	C133.131760,196.509308 132.973572,196.623703 132.722168,196.601105 
z"/>
<path fill="#96D0F3" opacity="1.000000" stroke="none" 
	d="
M243.999695,156.999695 
	C243.319595,157.599930 242.639801,158.200470 241.960007,158.801010 
	C241.762558,158.509613 241.565125,158.218201 241.367676,157.926804 
	C242.027145,157.620804 242.686600,157.314804 243.673340,157.004715 
	C244.000610,157.000610 244.000000,157.000000 243.999695,156.999695 
z"/>
<path fill="#96D0F3" opacity="1.000000" stroke="none" 
	d="
M241.532623,160.550735 
	C241.477600,160.583405 241.587631,160.518066 241.532623,160.550735 
z"/>
<path fill="#5AA1D8" opacity="1.000000" stroke="none" 
	d="
M205.690796,201.137482 
	C206.609818,204.624649 204.558502,202.684311 203.161591,202.206848 
	C203.773956,201.675888 204.572662,201.397842 205.690796,201.137482 
z"/>
<path fill="#9FD8F6" opacity="1.000000" stroke="none" 
	d="
M325.701080,160.035339 
	C325.519928,160.330276 325.040710,160.641586 324.259918,160.968842 
	C324.439911,160.673752 324.921448,160.362732 325.701080,160.035339 
z"/>
<path fill="#5AA1D8" opacity="1.000000" stroke="none" 
	d="
M201.449219,203.535339 
	C201.415253,203.479401 201.483200,203.591278 201.449219,203.535339 
z"/>
<path fill="#78B7E4" opacity="1.000000" stroke="none" 
	d="
M221.449493,198.533325 
	C221.415649,198.477219 221.483337,198.589432 221.449493,198.533325 
z"/>
</svg>